
<svg width="1200" height="1200" viewBox="0 0 1200 1200" fill="none" xmlns="http://www.w3.org/2000/svg">
<rect x="477.707" y="600.037" width="173" height="173" transform="rotate(-45 477.707 600.037)" fill="#6020EA" stroke="black"/>
<rect x="282" y="541.508" width="367" height="185" rx="92.5" transform="rotate(-45 282 541.508)" fill="white"/>
<rect x="345.64" y="535.851" width="265" height="107" rx="53.5" transform="rotate(-45 345.64 535.851)" fill="#6020EA"/>
<rect x="918.323" y="658.815" width="367" height="185" rx="92.5" transform="rotate(135 918.323 658.815)" fill="white"/>
<rect x="854.683" y="664.472" width="265" height="107" rx="53.5" transform="rotate(135 854.683 664.472)" fill="#6020EA"/>
<rect x="787.508" y="672.323" width="367" height="185" rx="92.5" transform="rotate(-135 787.508 672.323)" fill="white"/>
<rect x="781.851" y="608.683" width="265" height="107" rx="53.5" transform="rotate(-135 781.851 608.683)" fill="#6020EA"/>
<rect x="541.508" y="918.323" width="367" height="185" rx="92.5" transform="rotate(-135 541.508 918.323)" fill="white"/>
<rect x="535.851" y="854.683" width="265" height="107" rx="53.5" transform="rotate(-135 535.851 854.683)" fill="#6020EA"/>
</svg>
